<mxfile host="app.diagrams.net" modified="2023-05-31T17:45:16.338Z" agent="Mozilla/5.0 (Macintosh; Intel Mac OS X 10_15_7) AppleWebKit/537.36 (KHTML, like Gecko) Chrome/113.0.0.0 Safari/537.36" etag="5p3QOm7IjGM2Ie3eqv2A" version="21.3.2" type="device">
  <diagram name="Page-1" id="n-yDlsSnCzaUcS2wV09d">
    <mxGraphModel dx="1674" dy="828" grid="1" gridSize="10" guides="1" tooltips="1" connect="1" arrows="1" fold="1" page="1" pageScale="1" pageWidth="850" pageHeight="1100" math="0" shadow="0">
      <root>
        <mxCell id="0" />
        <mxCell id="1" parent="0" />
        <mxCell id="RC0PVJriPibwQPAn-25l-21" value="" style="whiteSpace=wrap;html=1;aspect=fixed;rotation=90;fillColor=#FFFFCC;" vertex="1" parent="1">
          <mxGeometry x="402.5" y="500" width="80" height="80" as="geometry" />
        </mxCell>
        <mxCell id="RC0PVJriPibwQPAn-25l-2" value="" style="shape=hexagon;perimeter=hexagonPerimeter2;whiteSpace=wrap;html=1;fixedSize=1;" vertex="1" parent="1">
          <mxGeometry x="305" y="320" width="285" height="180" as="geometry" />
        </mxCell>
        <mxCell id="RC0PVJriPibwQPAn-25l-17" value="API DTOs" style="edgeStyle=orthogonalEdgeStyle;rounded=0;orthogonalLoop=1;jettySize=auto;html=1;exitX=0;exitY=0.5;exitDx=0;exitDy=0;" edge="1" parent="1" source="RC0PVJriPibwQPAn-25l-3" target="RC0PVJriPibwQPAn-25l-5">
          <mxGeometry relative="1" as="geometry" />
        </mxCell>
        <mxCell id="RC0PVJriPibwQPAn-25l-3" value="" style="whiteSpace=wrap;html=1;aspect=fixed;rotation=15;fillColor=#FFFFCC;" vertex="1" parent="1">
          <mxGeometry x="240" y="310" width="80" height="80" as="geometry" />
        </mxCell>
        <mxCell id="RC0PVJriPibwQPAn-25l-4" value="" style="whiteSpace=wrap;html=1;aspect=fixed;rotation=-15;fillColor=#FFFFCC;" vertex="1" parent="1">
          <mxGeometry x="240" y="430" width="80" height="80" as="geometry" />
        </mxCell>
        <mxCell id="RC0PVJriPibwQPAn-25l-5" value="API Requests" style="text;html=1;align=center;verticalAlign=middle;resizable=0;points=[];autosize=1;strokeColor=none;fillColor=none;" vertex="1" parent="1">
          <mxGeometry x="40" y="320" width="100" height="30" as="geometry" />
        </mxCell>
        <mxCell id="RC0PVJriPibwQPAn-25l-11" value="DTOs" style="edgeStyle=orthogonalEdgeStyle;rounded=0;orthogonalLoop=1;jettySize=auto;html=1;exitX=1;exitY=0.5;exitDx=0;exitDy=0;entryX=0;entryY=0.5;entryDx=0;entryDy=0;entryPerimeter=0;" edge="1" parent="1" source="RC0PVJriPibwQPAn-25l-6" target="RC0PVJriPibwQPAn-25l-9">
          <mxGeometry relative="1" as="geometry" />
        </mxCell>
        <mxCell id="RC0PVJriPibwQPAn-25l-6" value="" style="whiteSpace=wrap;html=1;aspect=fixed;rotation=-15;fillColor=#FFFFCC;" vertex="1" parent="1">
          <mxGeometry x="580" y="310" width="80" height="80" as="geometry" />
        </mxCell>
        <mxCell id="RC0PVJriPibwQPAn-25l-7" value="" style="whiteSpace=wrap;html=1;aspect=fixed;rotation=15;fillColor=#FFFFCC;" vertex="1" parent="1">
          <mxGeometry x="580" y="430" width="80" height="80" as="geometry" />
        </mxCell>
        <mxCell id="RC0PVJriPibwQPAn-25l-8" value="Storing Catalog" style="ellipse;whiteSpace=wrap;html=1;aspect=fixed;" vertex="1" parent="1">
          <mxGeometry x="577.5" y="358" width="12.5" height="12.5" as="geometry" />
        </mxCell>
        <mxCell id="RC0PVJriPibwQPAn-25l-9" value="Catalog" style="sketch=0;points=[[0,0,0],[0.25,0,0],[0.5,0,0],[0.75,0,0],[1,0,0],[0,1,0],[0.25,1,0],[0.5,1,0],[0.75,1,0],[1,1,0],[0,0.25,0],[0,0.5,0],[0,0.75,0],[1,0.25,0],[1,0.5,0],[1,0.75,0]];outlineConnect=0;fontColor=#232F3E;gradientColor=#4D72F3;gradientDirection=north;fillColor=#3334B9;strokeColor=#ffffff;dashed=0;verticalLabelPosition=bottom;verticalAlign=top;align=center;html=1;fontSize=12;fontStyle=0;aspect=fixed;shape=mxgraph.aws4.resourceIcon;resIcon=mxgraph.aws4.dynamodb;" vertex="1" parent="1">
          <mxGeometry x="710" y="262" width="78" height="78" as="geometry" />
        </mxCell>
        <mxCell id="RC0PVJriPibwQPAn-25l-12" value="Telling&lt;br&gt;Time" style="ellipse;whiteSpace=wrap;html=1;aspect=fixed;" vertex="1" parent="1">
          <mxGeometry x="435" y="490" width="15" height="15" as="geometry" />
        </mxCell>
        <mxCell id="RC0PVJriPibwQPAn-25l-14" value="Picture" style="text;html=1;align=center;verticalAlign=middle;resizable=0;points=[];autosize=1;strokeColor=none;fillColor=none;" vertex="1" parent="1">
          <mxGeometry x="482.5" y="419" width="60" height="30" as="geometry" />
        </mxCell>
        <mxCell id="RC0PVJriPibwQPAn-25l-29" value="Binary" style="edgeStyle=orthogonalEdgeStyle;rounded=0;orthogonalLoop=1;jettySize=auto;html=1;" edge="1" parent="1" source="RC0PVJriPibwQPAn-25l-15">
          <mxGeometry relative="1" as="geometry">
            <mxPoint x="660" y="480" as="targetPoint" />
          </mxGeometry>
        </mxCell>
        <mxCell id="RC0PVJriPibwQPAn-25l-15" value="svz-master-pictures-new" style="outlineConnect=0;dashed=0;verticalLabelPosition=bottom;verticalAlign=top;align=center;html=1;shape=mxgraph.aws3.bucket;fillColor=#E05243;gradientColor=none;" vertex="1" parent="1">
          <mxGeometry x="740" y="415.75" width="60" height="61.5" as="geometry" />
        </mxCell>
        <mxCell id="RC0PVJriPibwQPAn-25l-18" value="S3Base" style="ellipse;whiteSpace=wrap;html=1;aspect=fixed;" vertex="1" parent="1">
          <mxGeometry x="577.5" y="449" width="12.5" height="12.5" as="geometry" />
        </mxCell>
        <mxCell id="RC0PVJriPibwQPAn-25l-19" value="DatePicker" style="text;strokeColor=none;align=center;fillColor=none;html=1;verticalAlign=middle;whiteSpace=wrap;rounded=0;" vertex="1" parent="1">
          <mxGeometry x="396" y="400" width="60" height="30" as="geometry" />
        </mxCell>
        <mxCell id="RC0PVJriPibwQPAn-25l-20" value="Processing&lt;br&gt;Requests?" style="ellipse;whiteSpace=wrap;html=1;aspect=fixed;" vertex="1" parent="1">
          <mxGeometry x="310" y="358" width="10" height="10" as="geometry" />
        </mxCell>
        <mxCell id="RC0PVJriPibwQPAn-25l-23" value="Datetime" style="edgeStyle=orthogonalEdgeStyle;rounded=0;orthogonalLoop=1;jettySize=auto;html=1;entryX=1;entryY=0.5;entryDx=0;entryDy=0;" edge="1" parent="1" source="RC0PVJriPibwQPAn-25l-22" target="RC0PVJriPibwQPAn-25l-21">
          <mxGeometry relative="1" as="geometry">
            <mxPoint x="442.5" y="590" as="targetPoint" />
            <Array as="points">
              <mxPoint x="443" y="610" />
              <mxPoint x="443" y="610" />
            </Array>
          </mxGeometry>
        </mxCell>
        <mxCell id="RC0PVJriPibwQPAn-25l-22" value="" style="html=1;verticalLabelPosition=bottom;align=center;labelBackgroundColor=#ffffff;verticalAlign=top;strokeWidth=2;strokeColor=#0080F0;shadow=0;dashed=0;shape=mxgraph.ios7.icons.alarm_clock;" vertex="1" parent="1">
          <mxGeometry x="429" y="630" width="27" height="30" as="geometry" />
        </mxCell>
        <mxCell id="RC0PVJriPibwQPAn-25l-24" value="Clock" style="text;html=1;align=center;verticalAlign=middle;resizable=0;points=[];autosize=1;strokeColor=none;fillColor=none;" vertex="1" parent="1">
          <mxGeometry x="425" y="440.25" width="50" height="30" as="geometry" />
        </mxCell>
        <mxCell id="RC0PVJriPibwQPAn-25l-25" style="edgeStyle=orthogonalEdgeStyle;rounded=0;orthogonalLoop=1;jettySize=auto;html=1;exitX=0.5;exitY=1;exitDx=0;exitDy=0;" edge="1" parent="1" source="RC0PVJriPibwQPAn-25l-20" target="RC0PVJriPibwQPAn-25l-20">
          <mxGeometry relative="1" as="geometry" />
        </mxCell>
        <mxCell id="RC0PVJriPibwQPAn-25l-30" value="Binary" style="edgeStyle=orthogonalEdgeStyle;rounded=0;orthogonalLoop=1;jettySize=auto;html=1;" edge="1" parent="1" source="RC0PVJriPibwQPAn-25l-27">
          <mxGeometry relative="1" as="geometry">
            <mxPoint x="660" y="490" as="targetPoint" />
          </mxGeometry>
        </mxCell>
        <mxCell id="RC0PVJriPibwQPAn-25l-27" value="Local" style="image;aspect=fixed;html=1;points=[];align=center;fontSize=12;image=img/lib/azure2/general/Folder_Blank.svg;" vertex="1" parent="1">
          <mxGeometry x="740" y="540" width="69" height="56.00000000000001" as="geometry" />
        </mxCell>
        <mxCell id="RC0PVJriPibwQPAn-25l-31" value="GeoLocator" style="text;html=1;align=center;verticalAlign=middle;resizable=0;points=[];autosize=1;strokeColor=none;fillColor=none;" vertex="1" parent="1">
          <mxGeometry x="435" y="348" width="90" height="30" as="geometry" />
        </mxCell>
        <mxCell id="RC0PVJriPibwQPAn-25l-34" value="Use Cases" style="rounded=1;whiteSpace=wrap;html=1;rotation=-60;fillColor=#CCFFFF;" vertex="1" parent="1">
          <mxGeometry x="322.5" y="354.25" width="80" height="20" as="geometry" />
        </mxCell>
        <mxCell id="RC0PVJriPibwQPAn-25l-38" value="Use Cases" style="rounded=1;whiteSpace=wrap;html=1;rotation=-105;fillColor=#CCFFFF;" vertex="1" parent="1">
          <mxGeometry x="305" y="436.5" width="80" height="20" as="geometry" />
        </mxCell>
        <mxCell id="RC0PVJriPibwQPAn-25l-42" value="S3 Events" style="edgeStyle=orthogonalEdgeStyle;rounded=0;orthogonalLoop=1;jettySize=auto;html=1;entryX=0.028;entryY=0.619;entryDx=0;entryDy=0;entryPerimeter=0;" edge="1" parent="1" source="RC0PVJriPibwQPAn-25l-41" target="RC0PVJriPibwQPAn-25l-4">
          <mxGeometry relative="1" as="geometry" />
        </mxCell>
        <mxCell id="RC0PVJriPibwQPAn-25l-41" value="" style="verticalLabelPosition=bottom;verticalAlign=top;html=1;shape=mxgraph.basic.flash;fillColor=#FFFF33;" vertex="1" parent="1">
          <mxGeometry x="70" y="468" width="20" height="37" as="geometry" />
        </mxCell>
        <mxCell id="RC0PVJriPibwQPAn-25l-43" value="Processing&lt;br&gt;File&lt;br&gt;Changes" style="ellipse;whiteSpace=wrap;html=1;aspect=fixed;" vertex="1" parent="1">
          <mxGeometry x="307.5" y="447.75" width="15" height="15" as="geometry" />
        </mxCell>
      </root>
    </mxGraphModel>
  </diagram>
</mxfile>
